HIERARCHY
ROOT Hips
{
	OFFSET 0.000000 0.000000 0.000000
	CHANNELS 6 Xposition Yposition Zposition Zrotation Yrotation Xrotation 
	JOINT LowerBack
	{
		OFFSET 0.000000 0.000000 0.000000
		CHANNELS 3 Zrotation Yrotation Xrotation
		JOINT Spine
		{
			OFFSET 0.028270 2.035590 -0.193380
			CHANNELS 3 Zrotation Yrotation Xrotation
			JOINT Spine1
			{
				OFFSET 0.056720 2.048850 -0.042750
				CHANNELS 3 Zrotation Yrotation Xrotation
				JOINT Neck
				{
					OFFSET 0.000000 0.000000 0.000000
					CHANNELS 3 Zrotation Yrotation Xrotation
					JOINT Neck1
					{
						OFFSET -0.054170 1.746240 0.172020
						CHANNELS 3 Zrotation Yrotation Xrotation
						JOINT Head
						{
							OFFSET 0.104070 1.761360 -0.123970
							CHANNELS 3 Zrotation Yrotation Xrotation
							End Site
							{
								OFFSET 0.000000 0.000000 0.000000
							}
						}
					}
				}
				JOINT LeftShoulder
				{
					OFFSET 0.000000 0.000000 0.000000
					CHANNELS 3 Zrotation Yrotation Xrotation
					JOINT LeftArm
					{
						OFFSET 3.362410 1.200890 -0.311210
						CHANNELS 3 Zrotation Yrotation Xrotation
						JOINT LeftForeArm
						{
							OFFSET 4.983000 -0.000000 -0.000000
							CHANNELS 3 Zrotation Yrotation Xrotation
							JOINT LeftHand
							{
								OFFSET 3.483560 -0.000000 -0.000000
								CHANNELS 3 Zrotation Yrotation Xrotation
								JOINT LeftFingerBase
								{
									OFFSET 0.000000 0.000000 0.000000
									CHANNELS 3 Zrotation Yrotation Xrotation
									JOINT LeftHandIndex1
									{
										OFFSET 0.715260 -0.000000 -0.000000
										CHANNELS 3 Zrotation Yrotation Xrotation
										End Site
										{
											OFFSET 0.000000 0.000000 0.000000
										}
									}
								}
								JOINT LThumb
								{
									OFFSET 0.000000 0.000000 0.000000
									CHANNELS 3 Zrotation Yrotation Xrotation
									End Site
									{
										OFFSET 0.000000 0.000000 0.000000
									}
								}
							}
						}
					}
				}
				JOINT RightShoulder
				{
					OFFSET 0.000000 0.000000 0.000000
					CHANNELS 3 Zrotation Yrotation Xrotation
					JOINT RightArm
					{
						OFFSET -3.136600 1.374050 -0.404650
						CHANNELS 3 Zrotation Yrotation Xrotation
						JOINT RightForeArm
						{
							OFFSET -5.241900 -0.000000 -0.000000
							CHANNELS 3 Zrotation Yrotation Xrotation
							JOINT RightHand
							{
								OFFSET -3.444170 -0.000000 -0.000000
								CHANNELS 3 Zrotation Yrotation Xrotation
								JOINT RightFingerBase
								{
									OFFSET 0.000000 0.000000 0.000000
									CHANNELS 3 Zrotation Yrotation Xrotation
									JOINT RightHandIndex1
									{
										OFFSET -0.622530 -0.000000 -0.000000
										CHANNELS 3 Zrotation Yrotation Xrotation
										End Site
										{
											OFFSET 0.000000 0.000000 0.000000
										}
									}
								}
								JOINT RThumb
								{
									OFFSET 0.000000 0.000000 0.000000
									CHANNELS 3 Zrotation Yrotation Xrotation
									End Site
									{
										OFFSET 0.000000 0.000000 0.000000
									}
								}
							}
						}
					}
				}
			}
		}
	}
}
}
MOTION
Frames: 6
Frame Time: 0.008333
2.160593 17.199682 0.247890 -16.378124 -84.000760 10.684744 -4.215797 -3.520200 -1.702969 -0.995332 -3.301877 -2.619616 -3.836147 -3.348253 2.213322 8.610901 -22.458274 -8.068384 -0.310558 -0.016389 -0.058840 0.000000 0.000000 0.000000 5.509166 17.400507 0.111741 -60.668957 23.733665 -7.951149 -3.406676 -40.540536 0.003916 -2.110714 -0.080819 0.003162 -0.140223 0.054177 -0.000000 0.000000 0.000000 0.000000 0.000000 0.000000 0.000000 5.569168 -19.152770 -0.893600 63.818760 -9.701142 7.853420 2.195262 44.078832 0.010775 -0.111795 5.658527 -0.009667 0.096373 -0.096092 -0.000000 0.000000 0.000000 0.000000 0.000000 0.000000 0.000000 
2.164276 17.199927 0.305437 -17.573706 -83.652908 11.714676 -4.176836 -3.636106 -1.611789 -0.983155 -3.422752 -2.609469 -3.836873 -3.468336 2.175077 8.649197 -22.518694 -8.071235 -0.295052 -0.014902 -0.060356 0.000000 0.000000 0.000000 5.677664 17.137354 0.094764 -60.549368 23.844948 -7.334200 -3.322909 -41.501416 0.004010 -2.171917 -0.055281 0.002865 -0.136125 0.056716 -0.000000 0.000000 0.000000 0.000000 0.000000 0.000000 0.000000 5.546370 -19.245161 -0.867832 63.938635 -9.717767 7.816585 2.209107 43.903275 0.010708 0.043666 5.549154 -0.001777 0.095118 -0.094351 -0.000000 0.000000 0.000000 0.000000 0.000000 0.000000 0.000000 
2.170109 17.199047 0.361781 -18.883040 -83.327504 12.868504 -4.110873 -3.752948 -1.513439 -0.965837 -3.546227 -2.597805 -3.840922 -3.590847 2.137780 8.694156 -22.576957 -8.087784 -0.280302 -0.013243 -0.065494 0.000000 0.000000 0.000000 5.848541 16.877941 0.081716 -60.422640 23.933761 -6.723905 -3.241639 -42.442096 0.004169 -2.263753 -0.039975 0.002668 -0.131761 0.059323 -0.000000 0.000000 0.000000 0.000000 0.000000 0.000000 0.000000 5.532514 -19.333293 -0.840302 64.058827 -9.696884 7.777529 2.221461 43.754827 0.010652 0.191306 5.455630 0.005413 0.093846 -0.092963 -0.000000 0.000000 0.000000 0.000000 0.000000 0.000000 0.000000 
2.178405 17.197030 0.416595 -20.287768 -83.029159 14.118132 -4.019699 -3.869002 -1.398949 -0.943959 -3.670390 -2.583023 -3.848370 -3.713761 2.100952 8.744259 -22.630396 -8.116312 -0.266497 -0.011450 -0.073883 0.000000 0.000000 0.000000 6.020795 16.619619 0.072672 -60.289475 23.997100 -6.130957 -3.163627 -43.349492 0.004389 -2.380298 -0.035713 0.002767 -0.127206 0.061985 -0.000000 0.000000 0.000000 0.000000 0.000000 0.000000 0.000000 5.525439 -19.414623 -0.811345 64.185147 -9.636800 7.731112 2.232295 43.625681 0.010615 0.322203 5.386176 0.011706 0.092635 -0.092007 -0.000000 0.000000 0.000000 0.000000 0.000000 0.000000 0.000000 
2.189212 17.194088 0.470026 -21.889907 -82.771278 15.578714 -3.890275 -3.979571 -1.279520 -0.915307 -3.791257 -2.567242 -3.860526 -3.833219 2.066377 8.798678 -22.674502 -8.156434 -0.254768 -0.009636 -0.085331 0.000000 0.000000 0.000000 6.189071 16.371317 0.068135 -60.149732 24.025558 -5.561265 -3.089450 -44.210218 0.004647 -2.508249 -0.038649 0.003069 -0.122657 0.064648 -0.000000 0.000000 0.000000 0.000000 0.000000 0.000000 0.000000 5.527128 -19.483122 -0.781571 64.316727 -9.533917 7.670740 2.242232 43.509587 0.010607 0.429645 5.346434 0.016799 0.091572 -0.091541 -0.000000 0.000000 0.000000 0.000000 0.000000 0.000000 0.000000 
2.202750 17.190263 0.521874 -23.612939 -82.551607 17.155877 -3.731929 -4.084951 -1.136990 -0.881756 -3.908460 -2.547220 -3.876181 -3.948671 2.032444 8.853717 -22.705622 -8.204275 -0.244799 -0.007824 -0.098959 0.000000 0.000000 0.000000 6.352651 16.122676 0.067819 -60.007276 24.025467 -5.029311 -3.019616 -45.016081 0.004936 -2.639799 -0.048987 0.003468 -0.118208 0.067309 -0.000000 0.000000 0.000000 0.000000 0.000000 0.000000 0.000000 5.530395 -19.536590 -0.751004 64.463198 -9.389977 7.588723 2.251310 43.395252 0.010635 0.506995 5.340087 0.020495 0.090722 -0.091583 -0.000000 0.000000 0.000000 0.000000 0.000000 0.000000 0.000000 
